<svg width="26" height="26" viewBox="0 0 26 26" fill="none" xmlns="http://www.w3.org/2000/svg">
<path d="M13 0C5.83968 0 0 5.83968 0 13C0 20.1603 5.83968 26 13 26C20.1603 26 26 20.1603 26 13C26 5.83968 20.1603 0 13 0ZM13 24.3492C6.74762 24.3492 1.65079 19.2524 1.65079 13C1.65079 6.74762 6.74762 1.65079 13 1.65079C19.2524 1.65079 24.3492 6.74762 24.3492 13C24.3492 19.2524 19.2524 24.3492 13 24.3492Z" fill="#F4F4F4" fill-opacity="0.6"/>
<path d="M13.8256 11.0397H12.1748V19.2936H13.8256V11.0397Z" fill="#F4F4F4" fill-opacity="0.6"/>
<path d="M13.8256 7.11902H12.1748V8.76981H13.8256V7.11902Z" fill="#F4F4F4" fill-opacity="0.6"/>
</svg>
