<svg width="20" height="20" viewBox="0 0 20 20" fill="none" xmlns="http://www.w3.org/2000/svg">
<path d="M18.125 0H1.875C0.839531 0 0 0.839531 0 1.875V18.125C0 19.1605 0.839531 20 1.875 20H18.125C19.1605 20 20 19.1605 20 18.125V1.875C20 0.839531 19.1605 0 18.125 0ZM17.3697 1.36719C17.7795 1.36719 18.1119 1.69953 18.1119 2.10938C18.1119 2.51922 17.7795 2.85156 17.3697 2.85156C16.9598 2.85156 16.6275 2.51922 16.6275 2.10938C16.6275 1.69953 16.9598 1.36719 17.3697 1.36719ZM14.6158 1.36719C15.0256 1.36719 15.358 1.69953 15.358 2.10938C15.358 2.51922 15.0256 2.85156 14.6158 2.85156C14.2059 2.85156 13.8736 2.51922 13.8736 2.10938C13.8736 1.69953 14.2059 1.36719 14.6158 1.36719ZM11.8619 1.36719C12.2717 1.36719 12.6041 1.69953 12.6041 2.10938C12.6041 2.51922 12.2717 2.85156 11.8619 2.85156C11.452 2.85156 11.1197 2.51922 11.1197 2.10938C11.1197 1.69953 11.452 1.36719 11.8619 1.36719ZM18.4375 18.125C18.4375 18.2971 18.2974 18.4375 18.125 18.4375H1.875C1.70258 18.4375 1.5625 18.2971 1.5625 18.125V4.0625H18.4375V18.125Z" fill="white"/>
<path d="M9.6875 7.5H3.75V8.75H9.6875V7.5Z" fill="white"/>
<path d="M16.5625 13.75H3.75V15H16.5625V13.75Z" fill="white"/>
<path d="M16.5625 7.5H11.875V12.1875H16.5625V7.5Z" fill="white"/>
<path d="M8.94695 11.875H9.6875V10.625H3.75V11.875H8.32195H8.94695Z" fill="white"/>
</svg>
