<svg width="50" height="50" viewBox="0 0 50 50" fill="none" xmlns="http://www.w3.org/2000/svg">
<path d="M33.3333 6.25H16.6667C14.3655 6.25 12.5 8.11548 12.5 10.4167V39.5833C12.5 41.8845 14.3655 43.75 16.6667 43.75H33.3333C35.6345 43.75 37.5 41.8845 37.5 39.5833V10.4167C37.5 8.11548 35.6345 6.25 33.3333 6.25Z" stroke="white" stroke-width="3"/>
<path d="M18.75 6.25C18.75 7.21873 18.75 7.70308 18.8565 8.10048C19.1454 9.1789 19.9878 10.0212 21.0663 10.3102C21.4635 10.4167 21.9479 10.4167 22.9167 10.4167H27.0833C28.0521 10.4167 28.5365 10.4167 28.9337 10.3102C30.0123 10.0212 30.8546 9.1789 31.1435 8.10048C31.25 7.70308 31.25 7.21873 31.25 6.25" stroke="white" stroke-width="3"/>
<path d="M25.0003 38.5834C26.1509 38.5834 27.0837 37.6507 27.0837 36.5001C27.0837 35.3495 26.1509 34.4167 25.0003 34.4167C23.8497 34.4167 22.917 35.3495 22.917 36.5001C22.917 37.6507 23.8497 38.5834 25.0003 38.5834Z" fill="white"/>
</svg>
