<svg width="50" height="50" viewBox="0 0 50 50" fill="none" xmlns="http://www.w3.org/2000/svg">
<path d="M43.5 16.25L36.0817 20.3713C31.9458 22.669 29.8779 23.8179 27.6879 24.2683C25.7496 24.6669 23.7504 24.6669 21.8121 24.2683C19.6222 23.8179 17.5542 22.669 13.4183 20.3713L6 16.25M12.6667 39.1667H36.8333C39.1669 39.1667 40.3338 39.1667 41.225 38.7125C42.009 38.3131 42.6465 37.6756 43.0458 36.8917C43.5 36.0004 43.5 34.8335 43.5 32.5V16.6667C43.5 14.3331 43.5 13.1663 43.0458 12.275C42.6465 11.491 42.009 10.8536 41.225 10.4541C40.3338 10 39.1669 10 36.8333 10H12.6667C10.3331 10 9.16633 10 8.27504 10.4541C7.49102 10.8536 6.8536 11.491 6.45415 12.275C6 13.1663 6 14.3331 6 16.6667V32.5C6 34.8335 6 36.0004 6.45415 36.8917C6.8536 37.6756 7.49102 38.3131 8.27504 38.7125C9.16633 39.1667 10.3331 39.1667 12.6667 39.1667Z" stroke="white" stroke-width="3" stroke-linecap="round" stroke-linejoin="round"/>
</svg>
