<svg width="20" height="20" viewBox="0 0 20 20" fill="none" xmlns="http://www.w3.org/2000/svg">
<path d="M12.2236 0C7.93742 0 4.44714 3.49028 4.44714 7.77643C4.44714 9.63852 5.10024 11.3457 6.19684 12.6853L0 18.8821L1.11786 20L7.3147 13.8032C8.65431 14.8998 10.3615 15.5529 12.2236 15.5529C16.5097 15.5529 20 12.0626 20 7.77643C20 3.49028 16.5097 0 12.2236 0ZM12.2236 1.55529C15.6683 1.55529 18.4447 4.33171 18.4447 7.77643C18.4447 11.2211 15.6683 13.9976 12.2236 13.9976C8.77886 13.9976 6.00243 11.2211 6.00243 7.77643C6.00243 4.33171 8.77886 1.55529 12.2236 1.55529Z" fill="white" fill-opacity="0.45"/>
</svg>
